<?xml version="1.0" encoding="UTF-8"?>
<svg xmlns="http://www.w3.org/2000/svg" version="1.1" width="300" height="300" viewBox="0 0 300 300"><rect x="0" y="0" width="300" height="300" fill="#ffffff"/><g transform="scale(9.091)"><g transform="translate(0,0)"><path fill-rule="evenodd" d="M9 0L9 1L8 1L8 2L9 2L9 3L8 3L8 4L10 4L10 7L11 7L11 4L12 4L12 5L15 5L15 6L14 6L14 8L13 8L13 6L12 6L12 9L13 9L13 10L11 10L11 11L10 11L10 9L11 9L11 8L6 8L6 9L5 9L5 8L0 8L0 9L3 9L3 10L2 10L2 11L1 11L1 10L0 10L0 12L2 12L2 15L0 15L0 16L1 16L1 17L0 17L0 18L6 18L6 19L3 19L3 20L1 20L1 19L0 19L0 25L1 25L1 22L2 22L2 25L4 25L4 24L3 24L3 23L4 23L4 21L5 21L5 24L6 24L6 25L7 25L7 24L6 24L6 23L8 23L8 27L9 27L9 24L10 24L10 23L9 23L9 22L10 22L10 21L9 21L9 20L8 20L8 19L10 19L10 17L11 17L11 16L10 16L10 15L11 15L11 13L12 13L12 14L13 14L13 13L14 13L14 14L15 14L15 16L13 16L13 15L12 15L12 17L16 17L16 18L14 18L14 20L12 20L12 19L13 19L13 18L11 18L11 21L12 21L12 22L13 22L13 21L14 21L14 22L15 22L15 25L14 25L14 24L13 24L13 23L12 23L12 24L11 24L11 26L13 26L13 25L14 25L14 26L15 26L15 27L14 27L14 28L13 28L13 27L11 27L11 28L13 28L13 29L10 29L10 28L8 28L8 33L11 33L11 30L12 30L12 31L13 31L13 29L15 29L15 28L17 28L17 29L18 29L18 30L21 30L21 31L20 31L20 32L22 32L22 33L23 33L23 32L24 32L24 33L28 33L28 32L26 32L26 31L28 31L28 30L30 30L30 29L29 29L29 25L30 25L30 28L31 28L31 29L32 29L32 28L33 28L33 27L32 27L32 26L33 26L33 24L32 24L32 26L31 26L31 25L30 25L30 24L31 24L31 23L32 23L32 22L33 22L33 21L32 21L32 20L31 20L31 19L32 19L32 18L33 18L33 17L32 17L32 16L31 16L31 15L32 15L32 14L33 14L33 13L31 13L31 15L30 15L30 13L29 13L29 12L28 12L28 11L29 11L29 10L28 10L28 8L27 8L27 9L26 9L26 8L24 8L24 7L25 7L25 6L24 6L24 7L23 7L23 5L24 5L24 4L25 4L25 2L23 2L23 1L24 1L24 0L23 0L23 1L22 1L22 2L21 2L21 1L20 1L20 0L19 0L19 1L20 1L20 3L19 3L19 2L18 2L18 1L15 1L15 0L14 0L14 1L15 1L15 2L18 2L18 3L17 3L17 4L16 4L16 3L15 3L15 4L14 4L14 3L13 3L13 4L12 4L12 2L13 2L13 1L11 1L11 2L10 2L10 0ZM10 3L10 4L11 4L11 3ZM18 3L18 4L17 4L17 5L18 5L18 4L19 4L19 3ZM20 3L20 5L19 5L19 7L20 7L20 8L19 8L19 9L18 9L18 10L17 10L17 8L18 8L18 6L17 6L17 8L14 8L14 9L15 9L15 10L13 10L13 11L12 11L12 13L13 13L13 12L14 12L14 13L15 13L15 14L17 14L17 16L16 16L16 17L17 17L17 16L19 16L19 17L22 17L22 16L20 16L20 14L18 14L18 13L21 13L21 15L23 15L23 17L25 17L25 18L26 18L26 17L27 17L27 16L28 16L28 15L26 15L26 14L25 14L25 15L26 15L26 16L24 16L24 14L23 14L23 13L28 13L28 14L29 14L29 13L28 13L28 12L27 12L27 10L25 10L25 12L24 12L24 10L23 10L23 9L22 9L22 8L23 8L23 7L22 7L22 6L21 6L21 5L23 5L23 4L22 4L22 3ZM15 4L15 5L16 5L16 4ZM8 5L8 7L9 7L9 5ZM15 6L15 7L16 7L16 6ZM20 6L20 7L21 7L21 8L20 8L20 9L19 9L19 10L18 10L18 11L19 11L19 10L20 10L20 11L21 11L21 12L22 12L22 13L23 13L23 10L22 10L22 9L21 9L21 8L22 8L22 7L21 7L21 6ZM29 8L29 9L30 9L30 8ZM31 8L31 10L33 10L33 9L32 9L32 8ZM6 9L6 10L4 10L4 11L5 11L5 12L3 12L3 11L2 11L2 12L3 12L3 15L2 15L2 17L5 17L5 16L7 16L7 17L6 17L6 18L7 18L7 19L6 19L6 20L7 20L7 21L6 21L6 22L9 22L9 21L8 21L8 20L7 20L7 19L8 19L8 16L9 16L9 17L10 17L10 16L9 16L9 13L8 13L8 12L7 12L7 11L6 11L6 10L8 10L8 11L9 11L9 9ZM20 9L20 10L21 10L21 9ZM15 10L15 11L16 11L16 10ZM30 11L30 12L31 12L31 11ZM5 12L5 13L4 13L4 14L5 14L5 15L7 15L7 14L6 14L6 13L7 13L7 12ZM10 12L10 13L11 13L11 12ZM15 12L15 13L18 13L18 12ZM0 13L0 14L1 14L1 13ZM3 15L3 16L4 16L4 15ZM29 15L29 17L28 17L28 18L27 18L27 19L28 19L28 20L26 20L26 19L25 19L25 20L24 20L24 18L21 18L21 19L20 19L20 18L16 18L16 19L17 19L17 20L19 20L19 21L15 21L15 20L14 20L14 21L15 21L15 22L17 22L17 23L16 23L16 25L15 25L15 26L16 26L16 25L17 25L17 28L18 28L18 29L21 29L21 30L22 30L22 32L23 32L23 31L24 31L24 32L25 32L25 30L28 30L28 29L24 29L24 27L23 27L23 28L20 28L20 27L22 27L22 26L23 26L23 24L24 24L24 22L23 22L23 21L28 21L28 24L30 24L30 23L29 23L29 22L30 22L30 21L31 21L31 20L30 20L30 19L31 19L31 16L30 16L30 15ZM29 17L29 19L30 19L30 17ZM21 19L21 20L20 20L20 21L19 21L19 22L20 22L20 23L18 23L18 24L17 24L17 25L19 25L19 26L20 26L20 25L21 25L21 24L23 24L23 23L22 23L22 22L20 22L20 21L21 21L21 20L22 20L22 21L23 21L23 19ZM28 20L28 21L30 21L30 20ZM2 21L2 22L3 22L3 21ZM25 22L25 23L27 23L27 22ZM12 24L12 25L13 25L13 24ZM19 24L19 25L20 25L20 24ZM25 25L25 28L28 28L28 25ZM26 26L26 27L27 27L27 26ZM31 27L31 28L32 28L32 27ZM9 29L9 32L10 32L10 29ZM22 29L22 30L23 30L23 29ZM14 30L14 32L12 32L12 33L15 33L15 32L16 32L16 33L19 33L19 32L16 32L16 30ZM31 30L31 31L30 31L30 32L29 32L29 33L30 33L30 32L31 32L31 33L32 33L32 32L31 32L31 31L32 31L32 30ZM0 0L0 7L7 7L7 0ZM1 1L1 6L6 6L6 1ZM2 2L2 5L5 5L5 2ZM26 0L26 7L33 7L33 0ZM27 1L27 6L32 6L32 1ZM28 2L28 5L31 5L31 2ZM0 26L0 33L7 33L7 26ZM1 27L1 32L6 32L6 27ZM2 28L2 31L5 31L5 28Z" fill="#000000"/></g></g></svg>
